<svg xmlns="http://www.w3.org/2000/svg" viewBox="0 0 375.9951 121.1279">
  <defs>
    <style>
      .cls-1 {
        fill: none;
        stroke: #e296bf;
        stroke-miterlimit: 10;
        stroke-width: 10px;
      }
    </style>
  </defs>
  <title>logo</title>
  <g id="Слой_2" data-name="Слой 2">
    <g id="Слой_1-2" data-name="Слой 1">
      <g>
        <path d="M8.3008,11.2.5,10V5H13.6006Q16.6987,5,22.5,4.6q5.7993-.3984,8.7-.3994,18.6006,0,27.65,9.35,9.0483,9.3516,9.05,26.25a45.6017,45.6017,0,0,1-4.65,20.95A34.6183,34.6183,0,0,1,50.2,75a36.4511,36.4511,0,0,1-19.3,5.1q-2.3994,0-8.2-.3994-6-.4014-9-.4H0v-4.9l8.3008-1ZM27.9,74.5h3a24.5619,24.5619,0,0,0,13.25-3.8,24.1281,24.1281,0,0,0,8.95-11.0508Q56.3,52.3,56.3008,41.8q0-15.8-6.8506-24T28.8008,9.6q-2.9019,0-6.9.4a17.5176,17.5176,0,0,1-3,.3V73.7A41.5057,41.5057,0,0,0,27.9,74.5Z"/>
        <path d="M85.1006,50.45q9.3984-4.4487,23.8-4.75V42.8994a22.0107,22.0107,0,0,0-1-7.3994,6.983,6.983,0,0,0-3.45-3.95A15.6122,15.6122,0,0,0,97.5,30.3a27.0454,27.0454,0,0,0-9.1494,1.45A62.9245,62.9245,0,0,0,80.3,35.3l-2.5-5.2A28.047,28.047,0,0,1,82.6006,27.2,48.85,48.85,0,0,1,90.7,24a31.47,31.47,0,0,1,9.2-1.4q7.0986,0,11.25,1.95a11.6307,11.6307,0,0,1,5.95,6.25q1.7988,4.3008,1.8,11.5v32.1H124.8v4.4q-2.001.501-5.05,1a33.6516,33.6516,0,0,1-5.35.5q-2.8008,0-3.8-.85-1.002-.85-1-3.75V72.3994a34.8736,34.8736,0,0,1-7.3506,5.5,19.4167,19.4167,0,0,1-9.85,2.5A17.5049,17.5049,0,0,1,80.45,76.25Q75.7,72.1016,75.7,64.3,75.7,54.9014,85.1006,50.45ZM102.7,72a32.1222,32.1222,0,0,0,6.2-3.8V51Q97.999,51,92.45,54.35,86.9,57.7012,86.9,63.1q0,5.4009,2.6494,7.95A9.8765,9.8765,0,0,0,96.7,73.6,14.4237,14.4237,0,0,0,102.7,72Z"/>
        <path d="M125.6992,5h26.6v5l-8.9,1.2,16.5,46.8994,3.7,12.2,3.3-12.4,14.9-46.6992-7.9-1.2V5h22.3008v5l-6.4,1.2L166.0986,80.1h-8.7L131.7988,11.2l-6.1-1.2Z"/>
        <path d="M206.5986,31.5l-7.6-1.8V24.3994l15.5-1.8994h.2l2.3,1.8V73.6l8,.8v4.9h-26.5v-4.9l8.1-.8994Zm-.8-19.5a6.6628,6.6628,0,0,1-1.6-4.6006,7.4867,7.4867,0,0,1,1.9492-5.3A6.9455,6.9455,0,0,1,211.499,0q3.3984,0,5,1.8a6.6727,6.6727,0,0,1,1.6,4.6,7.3991,7.3991,0,0,1-1.95,5.4,7.2584,7.2584,0,0,1-5.4492,2h-.1006A6.0868,6.0868,0,0,1,205.7988,12Z"/>
        <path d="M238.0977,31.5l-7.2-1.8V24.3l14.3-1.8h.3007l2.1,1.8v4.2l-.1,2.3994a36.2442,36.2442,0,0,1,9.5-5.8,28.0142,28.0142,0,0,1,11.3-2.6q6.3,0,9.75,2.3994a12.8075,12.8075,0,0,1,4.85,7.3506,50.8988,50.8988,0,0,1,1.4,13.35v28l7,.7v5h-23.7v-4.9l6.2-.8V45.5a41.8473,41.8473,0,0,0-.8-9.25,8.4366,8.4366,0,0,0-3-5q-2.2015-1.6509-6.4-1.65a19.2339,19.2339,0,0,0-7.7,1.8,36.6779,36.6779,0,0,0-7.3,4.2V73.5l6.8.8994v4.9h-23.6v-4.9l6.3-.8994Z"/>
        <path d="M300.5459,36.8994A25.326,25.326,0,0,1,310.1465,26.25a28.3,28.3,0,0,1,15.25-3.95,29.9807,29.9807,0,0,1,7.3994.8q3.0981.8013,7.4,2.2l-.4,15.4h-6.5l-2.2-10.2q-.5991-2.7993-7.6-2.8a12.8813,12.8813,0,0,0-11.05,5.6494q-4.05,5.6514-4.05,16.05,0,11.8008,4.55,17.95a14.0859,14.0859,0,0,0,11.85,6.15,24.0879,24.0879,0,0,0,7.95-1.3,28.2891,28.2891,0,0,0,6.45-3.1006l1.8994,4a24.1985,24.1985,0,0,1-7.9492,5.05,26.8142,26.8142,0,0,1-10.65,2.25,24.7356,24.7356,0,0,1-13.85-3.6992,22.874,22.874,0,0,1-8.5-10.15,35.8912,35.8912,0,0,1-2.8506-14.65A33.9224,33.9224,0,0,1,300.5459,36.8994Z"/>
        <path d="M357.5947,31.5l-7.6-1.8V24.3994l15.5-1.8994h.2l2.3,1.8V73.6l8,.8v4.9h-26.5v-4.9l8.1-.8994Zm-.8-19.5a6.6628,6.6628,0,0,1-1.6-4.6006,7.4867,7.4867,0,0,1,1.9492-5.3A6.9455,6.9455,0,0,1,362.4951,0q3.3984,0,5,1.8a6.6732,6.6732,0,0,1,1.6,4.6,7.3991,7.3991,0,0,1-1.95,5.4,7.2585,7.2585,0,0,1-5.4492,2h-.1006A6.0868,6.0868,0,0,1,356.7949,12Z"/>
      </g>
      <line class="cls-1" x1="0.4004" y1="113.4014" x2="105.4004" y2="113.4014"/>
      <line class="cls-1" x1="263.4004" y1="113.4014" x2="374.4004" y2="113.4014"/>
      <g>
        <path d="M136.0439,115.94a1.9133,1.9133,0,0,0,.9659.63,4.4733,4.4733,0,0,0,1.5752.2735q2.562,0,2.5615-1.8907a1.6669,1.6669,0,0,0-.7139-1.3965,10.5939,10.5939,0,0,0-2.4355-1.1855,6.2031,6.2031,0,0,1-2.4785-1.4492,3.18,3.18,0,0,1-.7764-2.2471,2.3952,2.3952,0,0,1,.5566-1.5752,3.5985,3.5985,0,0,1,1.49-1.04,5.5071,5.5071,0,0,1,2.0273-.3672,7.1853,7.1853,0,0,1,1.7949.1894,13.5089,13.5089,0,0,1,1.4385.462v2.499h-1.0293l-.3779-1.5332a1.236,1.236,0,0,0-.7451-.4619,4.3453,4.3453,0,0,0-1.3125-.1885,2.7485,2.7485,0,0,0-1.6377.4512,1.4123,1.4123,0,0,0-.63,1.207,1.8686,1.8686,0,0,0,.3144,1.1133,2.4,2.4,0,0,0,.7774.7031,11.3333,11.3333,0,0,0,1.2812.5986l.3985.168a15.6751,15.6751,0,0,1,1.9316.8721,3.7432,3.7432,0,0,1,1.2188,1.07,2.7282,2.7282,0,0,1,.4824,1.6484,2.8969,2.8969,0,0,1-1.1865,2.4473,5.1334,5.1334,0,0,1-3.16.8926,10.47,10.47,0,0,1-3.78-.8829v-2.6455h1.1338Z"/>
        <path d="M146.5234,107.3311l-1.6386-.3575v-.9453l2.8769-.3359h.042l.42.3359V116.55l1.8272.1465V117.6h-5.376v-.9033l1.8486-.168Zm-.4629-4.7886a1.4167,1.4167,0,0,1,.3575-.9976,1.2476,1.2476,0,0,1,.9658-.3882,1.0835,1.0835,0,0,1,.9033.3462,1.3337,1.3337,0,0,1,.2725.8506,1.4276,1.4276,0,0,1-.3457,1.0186,1.3076,1.3076,0,0,1-.9981.3676h-.02Q146.0616,103.74,146.0605,102.5425Z"/>
        <path d="M152.8643,107.3311l-1.6163-.3575v-.9453l2.667-.3359h.0625l.4.3359v.9238l-.0215.5254a8.2161,8.2161,0,0,1,2.0586-1.2382,5.8883,5.8883,0,0,1,2.373-.5684,3.5366,3.5366,0,0,1,2.0684.5156,2.7029,2.7029,0,0,1,1.0078,1.5742,11.46,11.46,0,0,1,.2832,2.8457V116.55l1.5752.1465V117.6h-4.6826v-.9033l1.4062-.1465v-5.9639a9.54,9.54,0,0,0-.1777-2.0791,1.93,1.93,0,0,0-.6934-1.1445,2.458,2.458,0,0,0-1.5019-.3887,4.6376,4.6376,0,0,0-1.8164.42,7.4575,7.4575,0,0,0-1.69.9863v8.1484l1.5332.168V117.6H151.458v-.9033l1.4063-.168Z"/>
        <path d="M165.6855,108.7275a5.2744,5.2744,0,0,1,1.9737-2.2578,5.8149,5.8149,0,0,1,3.2021-.84,6.41,6.41,0,0,1,1.5967.1992,10.6306,10.6306,0,0,1,1.3438.4307l-.084,3.0029h-1.05l-.4414-2.0156q-.126-.63-1.8057-.6309a3.14,3.14,0,0,0-2.6152,1.26,5.4942,5.4942,0,0,0-.9766,3.4443,6.32,6.32,0,0,0,1.0508,3.9483,3.3016,3.3016,0,0,0,2.73,1.3437,5.0869,5.0869,0,0,0,1.7119-.2939,5.8448,5.8448,0,0,0,1.375-.6719l.3359.6933a5.0809,5.0809,0,0,1-1.68,1.05,5.5389,5.5389,0,0,1-2.1211.4415,4.9731,4.9731,0,0,1-2.8349-.7881,4.8977,4.8977,0,0,1-1.7744-2.1416,7.4809,7.4809,0,0,1-.5987-3.0557A7.2747,7.2747,0,0,1,165.6855,108.7275Z"/>
        <path d="M177.2979,116.1611a7.932,7.932,0,0,1-.62-7.6123,5.2259,5.2259,0,0,1,1.9219-2.1533,5.12,5.12,0,0,1,2.7617-.7656,3.8687,3.8687,0,0,1,2.9082,1.07,4.5424,4.5424,0,0,1,1.1231,3.0879,9.3116,9.3116,0,0,1-.126,1.8476H177.791a6.0521,6.0521,0,0,0,.9971,3.6016,3.2472,3.2472,0,0,0,2.8037,1.3965,5.5867,5.5867,0,0,0,1.8066-.3154,4.2471,4.2471,0,0,0,1.4278-.7559l.3359.7773a4.7051,4.7051,0,0,1-1.7744,1.0606,6.7383,6.7383,0,0,1-2.3418.4307A4.4858,4.4858,0,0,1,177.2979,116.1611Zm6.205-5.5127a6.5236,6.5236,0,0,0,.0635-.9238,3.5831,3.5831,0,0,0-.6621-2.2051,2.3374,2.3374,0,0,0-1.9629-.8193q-2.8783,0-3.1289,3.9482Z"/>
        <path d="M196.05,114.3135a14.5039,14.5039,0,0,0,2.709-3.0772,5.5674,5.5674,0,0,0,1.0185-2.94,2.6656,2.6656,0,0,0-.7353-1.9727,2.84,2.84,0,0,0-2.1-.7363,4.4725,4.4725,0,0,0-2.1944.5156,7.72,7.72,0,0,0-1.67,1.2286l-.5879-.7989a7.3659,7.3659,0,0,1,2.0791-1.5429,6.0145,6.0145,0,0,1,2.835-.6827,4.937,4.937,0,0,1,2.4043.5362,3.51,3.51,0,0,1,1.4492,1.4062,3.8762,3.8762,0,0,1,.4727,1.8789,6.8275,6.8275,0,0,1-2.0479,4.4424,20.4878,20.4878,0,0,1-5.0293,4.042l6.7832-.44.6934-1.8272.9238.1885L202.55,117.6h-9.8916l-.2519-.7139A21.2939,21.2939,0,0,0,196.05,114.3135Z"/>
        <path d="M206.4131,115.8564a8.6257,8.6257,0,0,1-1.26-4.8085,7.9405,7.9405,0,0,1,.7344-3.4961,5.8108,5.8108,0,0,1,1.9853-2.3633,4.8427,4.8427,0,0,1,2.7608-.84,4.3762,4.3762,0,0,1,3.9375,1.7852,9.74,9.74,0,0,1,.4834,8.2949,6.0016,6.0016,0,0,1-1.9317,2.4678,4.5885,4.5885,0,0,1-2.7617.8926A4.375,4.375,0,0,1,206.4131,115.8564Zm6.6572-.5459a8.7769,8.7769,0,0,0,.84-4.2207q0-5.7757-3.4024-5.7753a2.8863,2.8863,0,0,0-2.667,1.4492,7.9133,7.9133,0,0,0-.86,4.0322,9.9088,9.9088,0,0,0,.8291,4.2939,2.7388,2.7388,0,0,0,2.6142,1.7325A2.816,2.816,0,0,0,213.07,115.3105Z"/>
        <path d="M219.7266,115.8564a8.6257,8.6257,0,0,1-1.26-4.8085,7.9392,7.9392,0,0,1,.7344-3.4961,5.81,5.81,0,0,1,1.9853-2.3633,4.8427,4.8427,0,0,1,2.7608-.84,4.3762,4.3762,0,0,1,3.9375,1.7852,9.74,9.74,0,0,1,.4834,8.2949,6.0024,6.0024,0,0,1-1.9317,2.4678,4.5885,4.5885,0,0,1-2.7617.8926A4.375,4.375,0,0,1,219.7266,115.8564Zm6.6572-.5459a8.777,8.777,0,0,0,.84-4.2207q0-5.7757-3.4023-5.7753a2.8863,2.8863,0,0,0-2.667,1.4492,7.9132,7.9132,0,0,0-.86,4.0322,9.91,9.91,0,0,0,.8291,4.2939,2.7391,2.7391,0,0,0,2.6143,1.7325A2.8161,2.8161,0,0,0,226.3838,115.3105Z"/>
        <path d="M233.9639,120.624q1.0077-2.2485,1.9326-4.5156.9228-2.2676,2.667-6.6357l1.4482-3.6534-6.6357.0625-.7354,2.625-1.1123-.1894.42-3.8428h9.2823l.3564.4619q-.0834.1685-2.8769,8.085-2.8565,8.0214-2.8975,8.1064Z"/>
      </g>
    </g>
  </g>
</svg>
